<mxfile host="app.diagrams.net" modified="2021-02-14T07:53:27.625Z" agent="5.0 (Windows NT 10.0; Win64; x64) AppleWebKit/537.36 (KHTML, like Gecko) Chrome/88.0.4324.150 Safari/537.36" etag="G27ovx7YsCUWUL1wG6CT" version="14.3.1" type="github" pages="3">
  <diagram id="C5RBs43oDa-KdzZeNtuy" name="Authentication">
    <mxGraphModel dx="1019" dy="562" grid="0" gridSize="10" guides="1" tooltips="1" connect="1" arrows="1" fold="1" page="1" pageScale="1" pageWidth="827" pageHeight="1169" background="none" math="0" shadow="1">
      <root>
        <mxCell id="WIyWlLk6GJQsqaUBKTNV-0" />
        <mxCell id="WIyWlLk6GJQsqaUBKTNV-1" parent="WIyWlLk6GJQsqaUBKTNV-0" />
        <mxCell id="SDrXgPxiD7yRCUiX3Bny-0" value="" style="group;fillColor=#dae8fc;strokeColor=#6c8ebf;" vertex="1" connectable="0" parent="WIyWlLk6GJQsqaUBKTNV-1">
          <mxGeometry x="215" y="77" width="398" height="920" as="geometry" />
        </mxCell>
        <mxCell id="YkOhw7yPYw7v9lZAAghe-52" value="" style="group" parent="SDrXgPxiD7yRCUiX3Bny-0" vertex="1" connectable="0">
          <mxGeometry x="137" y="140" width="170" height="780" as="geometry" />
        </mxCell>
        <mxCell id="YkOhw7yPYw7v9lZAAghe-0" value="start" style="ellipse;whiteSpace=wrap;html=1;" parent="YkOhw7yPYw7v9lZAAghe-52" vertex="1">
          <mxGeometry width="120" height="60" as="geometry" />
        </mxCell>
        <mxCell id="YkOhw7yPYw7v9lZAAghe-3" value="&lt;b&gt;registration:&lt;br&gt;&lt;/b&gt;&lt;br&gt;email,&lt;br&gt;username,&lt;br&gt;password" style="shape=parallelogram;perimeter=parallelogramPerimeter;whiteSpace=wrap;html=1;fixedSize=1;" parent="YkOhw7yPYw7v9lZAAghe-52" vertex="1">
          <mxGeometry y="100" width="120" height="80" as="geometry" />
        </mxCell>
        <mxCell id="YkOhw7yPYw7v9lZAAghe-6" style="edgeStyle=orthogonalEdgeStyle;rounded=0;orthogonalLoop=1;jettySize=auto;html=1;exitX=0.5;exitY=1;exitDx=0;exitDy=0;entryX=0.5;entryY=0;entryDx=0;entryDy=0;" parent="YkOhw7yPYw7v9lZAAghe-52" source="YkOhw7yPYw7v9lZAAghe-0" target="YkOhw7yPYw7v9lZAAghe-3" edge="1">
          <mxGeometry as="geometry" />
        </mxCell>
        <mxCell id="YkOhw7yPYw7v9lZAAghe-4" value="account verified ?" style="rhombus;whiteSpace=wrap;html=1;shadow=0;fontFamily=Helvetica;fontSize=12;align=center;strokeWidth=1;spacing=6;spacingTop=-4;" parent="YkOhw7yPYw7v9lZAAghe-52" vertex="1">
          <mxGeometry y="444.5" width="120" height="120" as="geometry" />
        </mxCell>
        <mxCell id="YkOhw7yPYw7v9lZAAghe-17" style="edgeStyle=orthogonalEdgeStyle;rounded=0;orthogonalLoop=1;jettySize=auto;html=1;exitX=0.5;exitY=1;exitDx=0;exitDy=0;entryX=0.5;entryY=0;entryDx=0;entryDy=0;" parent="YkOhw7yPYw7v9lZAAghe-52" source="YkOhw7yPYw7v9lZAAghe-5" target="YkOhw7yPYw7v9lZAAghe-4" edge="1">
          <mxGeometry as="geometry" />
        </mxCell>
        <mxCell id="YkOhw7yPYw7v9lZAAghe-5" value="&lt;b&gt;login:&lt;br&gt;&lt;/b&gt;&lt;br&gt;email,&lt;br&gt;password" style="shape=parallelogram;perimeter=parallelogramPerimeter;whiteSpace=wrap;html=1;fixedSize=1;" parent="YkOhw7yPYw7v9lZAAghe-52" vertex="1">
          <mxGeometry y="320" width="120" height="80" as="geometry" />
        </mxCell>
        <mxCell id="YkOhw7yPYw7v9lZAAghe-10" value="end" style="ellipse;whiteSpace=wrap;html=1;" parent="YkOhw7yPYw7v9lZAAghe-52" vertex="1">
          <mxGeometry y="720" width="120" height="60" as="geometry" />
        </mxCell>
        <mxCell id="YkOhw7yPYw7v9lZAAghe-16" style="edgeStyle=orthogonalEdgeStyle;rounded=0;orthogonalLoop=1;jettySize=auto;html=1;exitX=0.5;exitY=1;exitDx=0;exitDy=0;entryX=0.5;entryY=0;entryDx=0;entryDy=0;" parent="YkOhw7yPYw7v9lZAAghe-52" source="YkOhw7yPYw7v9lZAAghe-12" target="YkOhw7yPYw7v9lZAAghe-5" edge="1">
          <mxGeometry as="geometry" />
        </mxCell>
        <mxCell id="YkOhw7yPYw7v9lZAAghe-12" value="verify account by checking link on user email" style="rounded=0;whiteSpace=wrap;html=1;" parent="YkOhw7yPYw7v9lZAAghe-52" vertex="1">
          <mxGeometry y="220" width="120" height="60" as="geometry" />
        </mxCell>
        <mxCell id="YkOhw7yPYw7v9lZAAghe-15" style="edgeStyle=orthogonalEdgeStyle;rounded=0;orthogonalLoop=1;jettySize=auto;html=1;exitX=0.5;exitY=1;exitDx=0;exitDy=0;entryX=0.5;entryY=0;entryDx=0;entryDy=0;" parent="YkOhw7yPYw7v9lZAAghe-52" source="YkOhw7yPYw7v9lZAAghe-3" target="YkOhw7yPYw7v9lZAAghe-12" edge="1">
          <mxGeometry as="geometry" />
        </mxCell>
        <mxCell id="YkOhw7yPYw7v9lZAAghe-14" style="edgeStyle=orthogonalEdgeStyle;rounded=0;orthogonalLoop=1;jettySize=auto;html=1;exitX=1;exitY=0.5;exitDx=0;exitDy=0;entryX=1;entryY=0.5;entryDx=0;entryDy=0;" parent="YkOhw7yPYw7v9lZAAghe-52" source="YkOhw7yPYw7v9lZAAghe-4" target="YkOhw7yPYw7v9lZAAghe-12" edge="1">
          <mxGeometry as="geometry">
            <Array as="points">
              <mxPoint x="160" y="505" />
              <mxPoint x="160" y="250" />
            </Array>
          </mxGeometry>
        </mxCell>
        <mxCell id="YkOhw7yPYw7v9lZAAghe-20" value="yes" style="text;html=1;strokeColor=none;fillColor=none;align=center;verticalAlign=middle;whiteSpace=wrap;rounded=0;" parent="YkOhw7yPYw7v9lZAAghe-52" vertex="1">
          <mxGeometry x="13" y="575" width="40" height="20" as="geometry" />
        </mxCell>
        <mxCell id="YkOhw7yPYw7v9lZAAghe-22" value="no" style="text;html=1;strokeColor=none;fillColor=none;align=center;verticalAlign=middle;whiteSpace=wrap;rounded=0;" parent="YkOhw7yPYw7v9lZAAghe-52" vertex="1">
          <mxGeometry x="120" y="480" width="40" height="20" as="geometry" />
        </mxCell>
        <mxCell id="YkOhw7yPYw7v9lZAAghe-51" style="edgeStyle=orthogonalEdgeStyle;rounded=0;orthogonalLoop=1;jettySize=auto;html=1;exitX=0.5;exitY=1;exitDx=0;exitDy=0;entryX=0.5;entryY=0;entryDx=0;entryDy=0;" parent="YkOhw7yPYw7v9lZAAghe-52" source="YkOhw7yPYw7v9lZAAghe-48" target="YkOhw7yPYw7v9lZAAghe-10" edge="1">
          <mxGeometry relative="1" as="geometry" />
        </mxCell>
        <mxCell id="YkOhw7yPYw7v9lZAAghe-48" value="set user PIN" style="rounded=0;whiteSpace=wrap;html=1;" parent="YkOhw7yPYw7v9lZAAghe-52" vertex="1">
          <mxGeometry y="610" width="120" height="60" as="geometry" />
        </mxCell>
        <mxCell id="YkOhw7yPYw7v9lZAAghe-50" style="edgeStyle=orthogonalEdgeStyle;rounded=0;orthogonalLoop=1;jettySize=auto;html=1;exitX=0.5;exitY=1;exitDx=0;exitDy=0;" parent="YkOhw7yPYw7v9lZAAghe-52" source="YkOhw7yPYw7v9lZAAghe-4" target="YkOhw7yPYw7v9lZAAghe-48" edge="1">
          <mxGeometry relative="1" as="geometry" />
        </mxCell>
        <mxCell id="YkOhw7yPYw7v9lZAAghe-25" value="&lt;h1 style=&quot;text-align: center&quot;&gt;Authentication&lt;/h1&gt;&lt;p style=&quot;text-align: center&quot;&gt;&lt;span style=&quot;color: rgb(32 , 33 , 36) ; font-family: &amp;#34;arial&amp;#34; , sans-serif ; font-size: 16px ; background-color: rgb(255 , 255 , 255)&quot;&gt;process of verifying the identity of a person or device, &lt;b&gt;&lt;i&gt;simple yet effective&lt;/i&gt;&lt;/b&gt;&lt;/span&gt;&lt;br&gt;&lt;/p&gt;" style="text;html=1;strokeColor=none;fillColor=none;spacing=5;spacingTop=-20;whiteSpace=wrap;overflow=hidden;rounded=0;" parent="SDrXgPxiD7yRCUiX3Bny-0" vertex="1">
          <mxGeometry width="398" height="120" as="geometry" />
        </mxCell>
      </root>
    </mxGraphModel>
  </diagram>
  <diagram id="nyFLzISlVJXbN4C1lTQ1" name="Transaction">
    <mxGraphModel dx="1199" dy="661" grid="0" gridSize="10" guides="1" tooltips="1" connect="1" arrows="1" fold="1" page="1" pageScale="1" pageWidth="827" pageHeight="1169" math="0" shadow="1">
      <root>
        <mxCell id="0xrPqLrZVZDYOh9REc_U-0" />
        <mxCell id="0xrPqLrZVZDYOh9REc_U-1" parent="0xrPqLrZVZDYOh9REc_U-0" />
        <mxCell id="--nSn1WE8yAgfxKRihAo-0" value="" style="group;fillColor=#dae8fc;strokeColor=#6c8ebf;" vertex="1" connectable="0" parent="0xrPqLrZVZDYOh9REc_U-1">
          <mxGeometry x="44" y="22" width="740" height="1139" as="geometry" />
        </mxCell>
        <mxCell id="H7MSNQyrgr7WxgBgYehp-0" value="start" style="ellipse;whiteSpace=wrap;html=1;" parent="--nSn1WE8yAgfxKRihAo-0" vertex="1">
          <mxGeometry x="310" y="139" width="120" height="60" as="geometry" />
        </mxCell>
        <mxCell id="H7MSNQyrgr7WxgBgYehp-1" value="end" style="ellipse;whiteSpace=wrap;html=1;" parent="--nSn1WE8yAgfxKRihAo-0" vertex="1">
          <mxGeometry x="310" y="1079" width="120" height="60" as="geometry" />
        </mxCell>
        <mxCell id="H7MSNQyrgr7WxgBgYehp-4" value="&lt;b&gt;Transfer:&lt;br&gt;&lt;/b&gt;&lt;br&gt;transfer menu" style="rounded=0;whiteSpace=wrap;html=1;" parent="--nSn1WE8yAgfxKRihAo-0" vertex="1">
          <mxGeometry x="280" y="379" width="180" height="60" as="geometry" />
        </mxCell>
        <mxCell id="H7MSNQyrgr7WxgBgYehp-5" value="&lt;h1&gt;Transaction&lt;/h1&gt;&lt;p&gt;&lt;font color=&quot;#202124&quot; face=&quot;arial, sans-serif&quot;&gt;&lt;span style=&quot;font-size: 16px ; background-color: rgb(255 , 255 , 255)&quot;&gt;the reason why people should use our app&lt;/span&gt;&lt;/font&gt;&lt;/p&gt;&lt;p&gt;&lt;b style=&quot;color: rgb(32 , 33 , 36) ; font-family: &amp;#34;arial&amp;#34; , sans-serif ; font-size: 16px&quot;&gt;wallet chip is fast, secure, and recorded !&lt;/b&gt;&lt;/p&gt;" style="text;html=1;strokeColor=none;fillColor=none;spacing=5;spacingTop=-20;whiteSpace=wrap;overflow=hidden;rounded=0;align=center;" parent="--nSn1WE8yAgfxKRihAo-0" vertex="1">
          <mxGeometry x="159" width="420" height="120" as="geometry" />
        </mxCell>
        <mxCell id="H7MSNQyrgr7WxgBgYehp-27" style="edgeStyle=orthogonalEdgeStyle;rounded=0;orthogonalLoop=1;jettySize=auto;html=1;exitX=0.5;exitY=1;exitDx=0;exitDy=0;" parent="--nSn1WE8yAgfxKRihAo-0" source="H7MSNQyrgr7WxgBgYehp-6" target="H7MSNQyrgr7WxgBgYehp-4" edge="1">
          <mxGeometry relative="1" as="geometry" />
        </mxCell>
        <mxCell id="H7MSNQyrgr7WxgBgYehp-6" value="Login" style="rounded=0;whiteSpace=wrap;html=1;" parent="--nSn1WE8yAgfxKRihAo-0" vertex="1">
          <mxGeometry x="310" y="259" width="120" height="60" as="geometry" />
        </mxCell>
        <mxCell id="H7MSNQyrgr7WxgBgYehp-26" style="edgeStyle=orthogonalEdgeStyle;rounded=0;orthogonalLoop=1;jettySize=auto;html=1;exitX=0.5;exitY=1;exitDx=0;exitDy=0;" parent="--nSn1WE8yAgfxKRihAo-0" source="H7MSNQyrgr7WxgBgYehp-0" target="H7MSNQyrgr7WxgBgYehp-6" edge="1">
          <mxGeometry relative="1" as="geometry" />
        </mxCell>
        <mxCell id="H7MSNQyrgr7WxgBgYehp-8" value="&lt;b&gt;transfer:&lt;br&gt;&lt;/b&gt;&lt;br&gt;username,&lt;br&gt;amount,&lt;br&gt;date&amp;amp;time,&lt;br&gt;notes,&lt;br&gt;pin" style="shape=parallelogram;perimeter=parallelogramPerimeter;whiteSpace=wrap;html=1;fixedSize=1;" parent="--nSn1WE8yAgfxKRihAo-0" vertex="1">
          <mxGeometry x="310" y="499" width="119" height="100" as="geometry" />
        </mxCell>
        <mxCell id="O2R4WsmhSPi8Em2gVApP-6" style="edgeStyle=orthogonalEdgeStyle;rounded=0;orthogonalLoop=1;jettySize=auto;html=1;exitX=0.5;exitY=1;exitDx=0;exitDy=0;" edge="1" parent="--nSn1WE8yAgfxKRihAo-0" source="H7MSNQyrgr7WxgBgYehp-4" target="H7MSNQyrgr7WxgBgYehp-8">
          <mxGeometry relative="1" as="geometry" />
        </mxCell>
        <mxCell id="O2R4WsmhSPi8Em2gVApP-3" style="edgeStyle=orthogonalEdgeStyle;rounded=0;orthogonalLoop=1;jettySize=auto;html=1;exitX=0;exitY=0.5;exitDx=0;exitDy=0;entryX=0;entryY=0.5;entryDx=0;entryDy=0;" edge="1" parent="--nSn1WE8yAgfxKRihAo-0" source="H7MSNQyrgr7WxgBgYehp-11" target="H7MSNQyrgr7WxgBgYehp-8">
          <mxGeometry relative="1" as="geometry">
            <Array as="points">
              <mxPoint x="280" y="719" />
              <mxPoint x="280" y="549" />
            </Array>
          </mxGeometry>
        </mxCell>
        <mxCell id="H7MSNQyrgr7WxgBgYehp-11" value="user PIN match ?" style="rhombus;whiteSpace=wrap;html=1;shadow=0;fontFamily=Helvetica;fontSize=12;align=center;strokeWidth=1;spacing=6;spacingTop=-4;" parent="--nSn1WE8yAgfxKRihAo-0" vertex="1">
          <mxGeometry x="309" y="659" width="120" height="120" as="geometry" />
        </mxCell>
        <mxCell id="O2R4WsmhSPi8Em2gVApP-0" style="edgeStyle=orthogonalEdgeStyle;rounded=0;orthogonalLoop=1;jettySize=auto;html=1;exitX=0.5;exitY=1;exitDx=0;exitDy=0;" edge="1" parent="--nSn1WE8yAgfxKRihAo-0" source="H7MSNQyrgr7WxgBgYehp-8" target="H7MSNQyrgr7WxgBgYehp-11">
          <mxGeometry relative="1" as="geometry" />
        </mxCell>
        <mxCell id="O2R4WsmhSPi8Em2gVApP-7" style="edgeStyle=orthogonalEdgeStyle;rounded=0;orthogonalLoop=1;jettySize=auto;html=1;exitX=0.5;exitY=1;exitDx=0;exitDy=0;" edge="1" parent="--nSn1WE8yAgfxKRihAo-0" source="H7MSNQyrgr7WxgBgYehp-13" target="H7MSNQyrgr7WxgBgYehp-1">
          <mxGeometry relative="1" as="geometry" />
        </mxCell>
        <mxCell id="H7MSNQyrgr7WxgBgYehp-13" value="&lt;b&gt;transfer success !&lt;/b&gt;" style="shape=parallelogram;perimeter=parallelogramPerimeter;whiteSpace=wrap;html=1;fixedSize=1;" parent="--nSn1WE8yAgfxKRihAo-0" vertex="1">
          <mxGeometry x="300" y="959" width="139" height="60" as="geometry" />
        </mxCell>
        <mxCell id="O2R4WsmhSPi8Em2gVApP-2" style="edgeStyle=orthogonalEdgeStyle;rounded=0;orthogonalLoop=1;jettySize=auto;html=1;exitX=0.5;exitY=1;exitDx=0;exitDy=0;" edge="1" parent="--nSn1WE8yAgfxKRihAo-0" source="H7MSNQyrgr7WxgBgYehp-15" target="H7MSNQyrgr7WxgBgYehp-13">
          <mxGeometry relative="1" as="geometry" />
        </mxCell>
        <mxCell id="H7MSNQyrgr7WxgBgYehp-15" value="&lt;b&gt;Transfer&lt;/b&gt;" style="rounded=0;whiteSpace=wrap;html=1;" parent="--nSn1WE8yAgfxKRihAo-0" vertex="1">
          <mxGeometry x="309" y="839" width="120" height="60" as="geometry" />
        </mxCell>
        <mxCell id="O2R4WsmhSPi8Em2gVApP-1" style="edgeStyle=orthogonalEdgeStyle;rounded=0;orthogonalLoop=1;jettySize=auto;html=1;exitX=0.5;exitY=1;exitDx=0;exitDy=0;" edge="1" parent="--nSn1WE8yAgfxKRihAo-0" source="H7MSNQyrgr7WxgBgYehp-11" target="H7MSNQyrgr7WxgBgYehp-15">
          <mxGeometry relative="1" as="geometry" />
        </mxCell>
        <mxCell id="H7MSNQyrgr7WxgBgYehp-30" value="&lt;b&gt;Transactional History:&lt;/b&gt;&lt;br&gt;&lt;br&gt;home menu" style="rounded=0;whiteSpace=wrap;html=1;" parent="--nSn1WE8yAgfxKRihAo-0" vertex="1">
          <mxGeometry x="560" y="379" width="180" height="60" as="geometry" />
        </mxCell>
        <mxCell id="O2R4WsmhSPi8Em2gVApP-14" style="edgeStyle=orthogonalEdgeStyle;rounded=0;orthogonalLoop=1;jettySize=auto;html=1;exitX=0.5;exitY=1;exitDx=0;exitDy=0;" edge="1" parent="--nSn1WE8yAgfxKRihAo-0" source="H7MSNQyrgr7WxgBgYehp-6" target="H7MSNQyrgr7WxgBgYehp-30">
          <mxGeometry relative="1" as="geometry" />
        </mxCell>
        <mxCell id="O2R4WsmhSPi8Em2gVApP-8" value="&lt;b&gt;Top Up:&lt;/b&gt;&lt;br&gt;&lt;br&gt;top up menu" style="rounded=0;whiteSpace=wrap;html=1;" vertex="1" parent="--nSn1WE8yAgfxKRihAo-0">
          <mxGeometry y="379" width="180" height="60" as="geometry" />
        </mxCell>
        <mxCell id="O2R4WsmhSPi8Em2gVApP-21" style="edgeStyle=orthogonalEdgeStyle;rounded=0;orthogonalLoop=1;jettySize=auto;html=1;exitX=0.5;exitY=1;exitDx=0;exitDy=0;" edge="1" parent="--nSn1WE8yAgfxKRihAo-0" source="H7MSNQyrgr7WxgBgYehp-6" target="O2R4WsmhSPi8Em2gVApP-8">
          <mxGeometry relative="1" as="geometry" />
        </mxCell>
        <mxCell id="O2R4WsmhSPi8Em2gVApP-13" style="edgeStyle=orthogonalEdgeStyle;rounded=0;orthogonalLoop=1;jettySize=auto;html=1;exitX=0.5;exitY=1;exitDx=0;exitDy=0;entryX=0.5;entryY=0;entryDx=0;entryDy=0;" edge="1" parent="--nSn1WE8yAgfxKRihAo-0" source="O2R4WsmhSPi8Em2gVApP-9" target="H7MSNQyrgr7WxgBgYehp-1">
          <mxGeometry relative="1" as="geometry">
            <Array as="points">
              <mxPoint x="650" y="1059" />
              <mxPoint x="370" y="1059" />
            </Array>
          </mxGeometry>
        </mxCell>
        <mxCell id="O2R4WsmhSPi8Em2gVApP-9" value="&lt;b&gt;transactional&lt;br&gt;history:&lt;br&gt;&lt;/b&gt;&lt;br&gt;username,&lt;br&gt;amount,&lt;br&gt;date&amp;amp;time,&lt;br&gt;notes,&lt;br&gt;pin" style="shape=parallelogram;perimeter=parallelogramPerimeter;whiteSpace=wrap;html=1;fixedSize=1;" vertex="1" parent="--nSn1WE8yAgfxKRihAo-0">
          <mxGeometry x="570.25" y="659" width="159.5" height="120" as="geometry" />
        </mxCell>
        <mxCell id="O2R4WsmhSPi8Em2gVApP-11" style="edgeStyle=orthogonalEdgeStyle;rounded=0;orthogonalLoop=1;jettySize=auto;html=1;exitX=0.5;exitY=1;exitDx=0;exitDy=0;entryX=0.5;entryY=0;entryDx=0;entryDy=0;" edge="1" parent="--nSn1WE8yAgfxKRihAo-0" source="H7MSNQyrgr7WxgBgYehp-30" target="O2R4WsmhSPi8Em2gVApP-9">
          <mxGeometry relative="1" as="geometry" />
        </mxCell>
        <mxCell id="O2R4WsmhSPi8Em2gVApP-16" value="&lt;b&gt;How to top up&lt;/b&gt;" style="shape=parallelogram;perimeter=parallelogramPerimeter;whiteSpace=wrap;html=1;fixedSize=1;" vertex="1" parent="--nSn1WE8yAgfxKRihAo-0">
          <mxGeometry x="10.25" y="659" width="159.5" height="120" as="geometry" />
        </mxCell>
        <mxCell id="O2R4WsmhSPi8Em2gVApP-20" style="edgeStyle=orthogonalEdgeStyle;rounded=0;orthogonalLoop=1;jettySize=auto;html=1;exitX=0.5;exitY=1;exitDx=0;exitDy=0;" edge="1" parent="--nSn1WE8yAgfxKRihAo-0" source="O2R4WsmhSPi8Em2gVApP-8" target="O2R4WsmhSPi8Em2gVApP-16">
          <mxGeometry relative="1" as="geometry" />
        </mxCell>
        <mxCell id="O2R4WsmhSPi8Em2gVApP-18" style="edgeStyle=orthogonalEdgeStyle;rounded=0;orthogonalLoop=1;jettySize=auto;html=1;exitX=0.5;exitY=1;exitDx=0;exitDy=0;" edge="1" parent="--nSn1WE8yAgfxKRihAo-0" source="O2R4WsmhSPi8Em2gVApP-17" target="H7MSNQyrgr7WxgBgYehp-1">
          <mxGeometry relative="1" as="geometry">
            <Array as="points">
              <mxPoint x="90" y="1059" />
              <mxPoint x="370" y="1059" />
            </Array>
          </mxGeometry>
        </mxCell>
        <mxCell id="O2R4WsmhSPi8Em2gVApP-17" value="&lt;b&gt;Balance will update within 3 hours&lt;/b&gt;" style="rounded=0;whiteSpace=wrap;html=1;" vertex="1" parent="--nSn1WE8yAgfxKRihAo-0">
          <mxGeometry x="30" y="839" width="120" height="60" as="geometry" />
        </mxCell>
        <mxCell id="O2R4WsmhSPi8Em2gVApP-19" style="edgeStyle=orthogonalEdgeStyle;rounded=0;orthogonalLoop=1;jettySize=auto;html=1;exitX=0.5;exitY=1;exitDx=0;exitDy=0;" edge="1" parent="--nSn1WE8yAgfxKRihAo-0" source="O2R4WsmhSPi8Em2gVApP-16" target="O2R4WsmhSPi8Em2gVApP-17">
          <mxGeometry relative="1" as="geometry" />
        </mxCell>
      </root>
    </mxGraphModel>
  </diagram>
  <diagram id="3Xmoj4H64wHJT0EYU57m" name="Update Profile">
    <mxGraphModel dx="1019" dy="562" grid="0" gridSize="10" guides="1" tooltips="1" connect="1" arrows="1" fold="1" page="1" pageScale="1" pageWidth="827" pageHeight="1169" math="0" shadow="0">
      <root>
        <mxCell id="s_H1t2akyJVBIyxcnZW3-0" />
        <mxCell id="s_H1t2akyJVBIyxcnZW3-1" parent="s_H1t2akyJVBIyxcnZW3-0" />
        <mxCell id="npDnuudYXLRrLSvOA6rn-43" value="" style="group;fillColor=#dae8fc;strokeColor=#6c8ebf;" vertex="1" connectable="0" parent="s_H1t2akyJVBIyxcnZW3-1">
          <mxGeometry x="49" y="63" width="730" height="1078" as="geometry" />
        </mxCell>
        <mxCell id="-XPDJb95wUxSRpS_27CN-18" value="&lt;h1&gt;Update Profile&lt;/h1&gt;&lt;p&gt;&lt;span style=&quot;color: rgb(32 , 33 , 36) ; font-family: &amp;#34;arial&amp;#34; , sans-serif ; font-size: 16px ; background-color: rgb(255 , 255 , 255)&quot;&gt;let everyone know more about you,&lt;/span&gt;&lt;/p&gt;&lt;p&gt;&lt;span style=&quot;color: rgb(32 , 33 , 36) ; font-family: &amp;#34;arial&amp;#34; , sans-serif ; font-size: 16px ; background-color: rgb(255 , 255 , 255)&quot;&gt;&lt;b&gt;openess comforts everyone&lt;/b&gt;&lt;/span&gt;&lt;/p&gt;" style="text;html=1;strokeColor=none;fillColor=none;spacing=5;spacingTop=-20;whiteSpace=wrap;overflow=hidden;rounded=0;align=center;" vertex="1" parent="npDnuudYXLRrLSvOA6rn-43">
          <mxGeometry x="219" width="260" height="120" as="geometry" />
        </mxCell>
        <mxCell id="-XPDJb95wUxSRpS_27CN-2" value="start" style="ellipse;whiteSpace=wrap;html=1;" vertex="1" parent="npDnuudYXLRrLSvOA6rn-43">
          <mxGeometry x="287" y="137" width="120" height="60" as="geometry" />
        </mxCell>
        <mxCell id="-XPDJb95wUxSRpS_27CN-7" value="first name,&lt;br&gt;last name,&lt;br&gt;phone number,&lt;br&gt;photo profile," style="shape=parallelogram;perimeter=parallelogramPerimeter;whiteSpace=wrap;html=1;fixedSize=1;" vertex="1" parent="npDnuudYXLRrLSvOA6rn-43">
          <mxGeometry y="567" width="186" height="78" as="geometry" />
        </mxCell>
        <mxCell id="-XPDJb95wUxSRpS_27CN-8" value="end" style="ellipse;whiteSpace=wrap;html=1;" vertex="1" parent="npDnuudYXLRrLSvOA6rn-43">
          <mxGeometry x="287" y="1018" width="120" height="60" as="geometry" />
        </mxCell>
        <mxCell id="-XPDJb95wUxSRpS_27CN-10" value="Personal Info menu" style="rounded=0;whiteSpace=wrap;html=1;" vertex="1" parent="npDnuudYXLRrLSvOA6rn-43">
          <mxGeometry x="287" y="357" width="120" height="60" as="geometry" />
        </mxCell>
        <mxCell id="npDnuudYXLRrLSvOA6rn-3" style="edgeStyle=orthogonalEdgeStyle;rounded=0;orthogonalLoop=1;jettySize=auto;html=1;exitX=0.5;exitY=1;exitDx=0;exitDy=0;" edge="1" parent="npDnuudYXLRrLSvOA6rn-43" source="fAWIVmmSlXxmlLh25WIB-0" target="-XPDJb95wUxSRpS_27CN-10">
          <mxGeometry relative="1" as="geometry" />
        </mxCell>
        <mxCell id="fAWIVmmSlXxmlLh25WIB-0" value="Login" style="rounded=0;whiteSpace=wrap;html=1;" vertex="1" parent="npDnuudYXLRrLSvOA6rn-43">
          <mxGeometry x="287" y="247" width="120" height="60" as="geometry" />
        </mxCell>
        <mxCell id="npDnuudYXLRrLSvOA6rn-2" style="edgeStyle=orthogonalEdgeStyle;rounded=0;orthogonalLoop=1;jettySize=auto;html=1;exitX=0.5;exitY=1;exitDx=0;exitDy=0;" edge="1" parent="npDnuudYXLRrLSvOA6rn-43" source="-XPDJb95wUxSRpS_27CN-2" target="fAWIVmmSlXxmlLh25WIB-0">
          <mxGeometry relative="1" as="geometry" />
        </mxCell>
        <mxCell id="npDnuudYXLRrLSvOA6rn-16" style="edgeStyle=orthogonalEdgeStyle;rounded=0;orthogonalLoop=1;jettySize=auto;html=1;exitX=0.5;exitY=1;exitDx=0;exitDy=0;" edge="1" parent="npDnuudYXLRrLSvOA6rn-43" source="npDnuudYXLRrLSvOA6rn-4" target="-XPDJb95wUxSRpS_27CN-7">
          <mxGeometry relative="1" as="geometry" />
        </mxCell>
        <mxCell id="npDnuudYXLRrLSvOA6rn-4" value="&lt;b&gt;Update user profile&lt;/b&gt;" style="rounded=0;whiteSpace=wrap;html=1;" vertex="1" parent="npDnuudYXLRrLSvOA6rn-43">
          <mxGeometry x="33" y="464" width="120" height="60" as="geometry" />
        </mxCell>
        <mxCell id="npDnuudYXLRrLSvOA6rn-14" style="edgeStyle=orthogonalEdgeStyle;rounded=0;orthogonalLoop=1;jettySize=auto;html=1;exitX=0.5;exitY=1;exitDx=0;exitDy=0;entryX=0.5;entryY=0;entryDx=0;entryDy=0;" edge="1" parent="npDnuudYXLRrLSvOA6rn-43" source="-XPDJb95wUxSRpS_27CN-10" target="npDnuudYXLRrLSvOA6rn-4">
          <mxGeometry relative="1" as="geometry" />
        </mxCell>
        <mxCell id="npDnuudYXLRrLSvOA6rn-5" value="current password right ?&lt;br&gt;new password = repeat new password ?" style="rhombus;whiteSpace=wrap;html=1;" vertex="1" parent="npDnuudYXLRrLSvOA6rn-43">
          <mxGeometry x="251.5" y="690" width="191" height="173" as="geometry" />
        </mxCell>
        <mxCell id="npDnuudYXLRrLSvOA6rn-19" style="edgeStyle=orthogonalEdgeStyle;rounded=0;orthogonalLoop=1;jettySize=auto;html=1;exitX=0.5;exitY=1;exitDx=0;exitDy=0;entryX=0.5;entryY=0;entryDx=0;entryDy=0;" edge="1" parent="npDnuudYXLRrLSvOA6rn-43" source="npDnuudYXLRrLSvOA6rn-6" target="npDnuudYXLRrLSvOA6rn-5">
          <mxGeometry relative="1" as="geometry">
            <Array as="points">
              <mxPoint x="347" y="690" />
            </Array>
          </mxGeometry>
        </mxCell>
        <mxCell id="npDnuudYXLRrLSvOA6rn-6" value="current password,&lt;br&gt;new password,&lt;br&gt;repeat new password" style="shape=parallelogram;perimeter=parallelogramPerimeter;whiteSpace=wrap;html=1;fixedSize=1;" vertex="1" parent="npDnuudYXLRrLSvOA6rn-43">
          <mxGeometry x="254" y="567" width="186" height="78" as="geometry" />
        </mxCell>
        <mxCell id="npDnuudYXLRrLSvOA6rn-20" style="edgeStyle=orthogonalEdgeStyle;rounded=0;orthogonalLoop=1;jettySize=auto;html=1;exitX=0.5;exitY=1;exitDx=0;exitDy=0;entryX=0.5;entryY=0;entryDx=0;entryDy=0;" edge="1" parent="npDnuudYXLRrLSvOA6rn-43" source="npDnuudYXLRrLSvOA6rn-7" target="npDnuudYXLRrLSvOA6rn-6">
          <mxGeometry relative="1" as="geometry" />
        </mxCell>
        <mxCell id="npDnuudYXLRrLSvOA6rn-7" value="&lt;b&gt;Change password&lt;/b&gt;" style="rounded=0;whiteSpace=wrap;html=1;" vertex="1" parent="npDnuudYXLRrLSvOA6rn-43">
          <mxGeometry x="287" y="462" width="120" height="60" as="geometry" />
        </mxCell>
        <mxCell id="npDnuudYXLRrLSvOA6rn-13" style="edgeStyle=orthogonalEdgeStyle;rounded=0;orthogonalLoop=1;jettySize=auto;html=1;exitX=0.5;exitY=1;exitDx=0;exitDy=0;" edge="1" parent="npDnuudYXLRrLSvOA6rn-43" source="-XPDJb95wUxSRpS_27CN-10" target="npDnuudYXLRrLSvOA6rn-7">
          <mxGeometry relative="1" as="geometry" />
        </mxCell>
        <mxCell id="npDnuudYXLRrLSvOA6rn-30" style="edgeStyle=orthogonalEdgeStyle;rounded=0;orthogonalLoop=1;jettySize=auto;html=1;exitX=1;exitY=0.5;exitDx=0;exitDy=0;entryX=1;entryY=0.5;entryDx=0;entryDy=0;" edge="1" parent="npDnuudYXLRrLSvOA6rn-43" source="npDnuudYXLRrLSvOA6rn-5" target="npDnuudYXLRrLSvOA6rn-7">
          <mxGeometry relative="1" as="geometry">
            <Array as="points">
              <mxPoint x="455" y="777" />
              <mxPoint x="455" y="492" />
            </Array>
          </mxGeometry>
        </mxCell>
        <mxCell id="npDnuudYXLRrLSvOA6rn-8" value="&lt;b&gt;Change PIN&lt;/b&gt;" style="rounded=0;whiteSpace=wrap;html=1;" vertex="1" parent="npDnuudYXLRrLSvOA6rn-43">
          <mxGeometry x="541" y="464" width="120" height="60" as="geometry" />
        </mxCell>
        <mxCell id="npDnuudYXLRrLSvOA6rn-15" style="edgeStyle=orthogonalEdgeStyle;rounded=0;orthogonalLoop=1;jettySize=auto;html=1;exitX=0.5;exitY=1;exitDx=0;exitDy=0;" edge="1" parent="npDnuudYXLRrLSvOA6rn-43" source="-XPDJb95wUxSRpS_27CN-10" target="npDnuudYXLRrLSvOA6rn-8">
          <mxGeometry relative="1" as="geometry" />
        </mxCell>
        <mxCell id="npDnuudYXLRrLSvOA6rn-42" style="edgeStyle=orthogonalEdgeStyle;rounded=0;orthogonalLoop=1;jettySize=auto;html=1;exitX=0.5;exitY=1;exitDx=0;exitDy=0;" edge="1" parent="npDnuudYXLRrLSvOA6rn-43" source="npDnuudYXLRrLSvOA6rn-11">
          <mxGeometry relative="1" as="geometry">
            <mxPoint x="347" y="1017.5695190429688" as="targetPoint" />
          </mxGeometry>
        </mxCell>
        <mxCell id="npDnuudYXLRrLSvOA6rn-11" value="Change password success !" style="shape=parallelogram;perimeter=parallelogramPerimeter;whiteSpace=wrap;html=1;fixedSize=1;" vertex="1" parent="npDnuudYXLRrLSvOA6rn-43">
          <mxGeometry x="254" y="891" width="186" height="78" as="geometry" />
        </mxCell>
        <mxCell id="npDnuudYXLRrLSvOA6rn-21" style="edgeStyle=orthogonalEdgeStyle;rounded=0;orthogonalLoop=1;jettySize=auto;html=1;exitX=0.5;exitY=1;exitDx=0;exitDy=0;" edge="1" parent="npDnuudYXLRrLSvOA6rn-43" source="npDnuudYXLRrLSvOA6rn-5" target="npDnuudYXLRrLSvOA6rn-11">
          <mxGeometry relative="1" as="geometry" />
        </mxCell>
        <mxCell id="npDnuudYXLRrLSvOA6rn-40" style="edgeStyle=orthogonalEdgeStyle;rounded=0;orthogonalLoop=1;jettySize=auto;html=1;exitX=0.5;exitY=1;exitDx=0;exitDy=0;" edge="1" parent="npDnuudYXLRrLSvOA6rn-43" source="npDnuudYXLRrLSvOA6rn-12" target="-XPDJb95wUxSRpS_27CN-8">
          <mxGeometry relative="1" as="geometry" />
        </mxCell>
        <mxCell id="npDnuudYXLRrLSvOA6rn-12" value="Update user profile success !" style="shape=parallelogram;perimeter=parallelogramPerimeter;whiteSpace=wrap;html=1;fixedSize=1;" vertex="1" parent="npDnuudYXLRrLSvOA6rn-43">
          <mxGeometry y="891" width="186" height="78" as="geometry" />
        </mxCell>
        <mxCell id="npDnuudYXLRrLSvOA6rn-18" style="edgeStyle=orthogonalEdgeStyle;rounded=0;orthogonalLoop=1;jettySize=auto;html=1;exitX=0.5;exitY=1;exitDx=0;exitDy=0;" edge="1" parent="npDnuudYXLRrLSvOA6rn-43" source="-XPDJb95wUxSRpS_27CN-7" target="npDnuudYXLRrLSvOA6rn-12">
          <mxGeometry relative="1" as="geometry" />
        </mxCell>
        <mxCell id="npDnuudYXLRrLSvOA6rn-41" style="edgeStyle=orthogonalEdgeStyle;rounded=0;orthogonalLoop=1;jettySize=auto;html=1;exitX=0.5;exitY=1;exitDx=0;exitDy=0;entryX=0.5;entryY=0;entryDx=0;entryDy=0;" edge="1" parent="npDnuudYXLRrLSvOA6rn-43" source="npDnuudYXLRrLSvOA6rn-24" target="-XPDJb95wUxSRpS_27CN-8">
          <mxGeometry relative="1" as="geometry" />
        </mxCell>
        <mxCell id="npDnuudYXLRrLSvOA6rn-24" value="Change password success !" style="shape=parallelogram;perimeter=parallelogramPerimeter;whiteSpace=wrap;html=1;fixedSize=1;" vertex="1" parent="npDnuudYXLRrLSvOA6rn-43">
          <mxGeometry x="508" y="891" width="186" height="78" as="geometry" />
        </mxCell>
        <mxCell id="npDnuudYXLRrLSvOA6rn-25" value="new PIN" style="shape=parallelogram;perimeter=parallelogramPerimeter;whiteSpace=wrap;html=1;fixedSize=1;" vertex="1" parent="npDnuudYXLRrLSvOA6rn-43">
          <mxGeometry x="508" y="567" width="186" height="78" as="geometry" />
        </mxCell>
        <mxCell id="npDnuudYXLRrLSvOA6rn-26" style="edgeStyle=orthogonalEdgeStyle;rounded=0;orthogonalLoop=1;jettySize=auto;html=1;exitX=0.5;exitY=1;exitDx=0;exitDy=0;" edge="1" parent="npDnuudYXLRrLSvOA6rn-43" source="npDnuudYXLRrLSvOA6rn-8" target="npDnuudYXLRrLSvOA6rn-25">
          <mxGeometry relative="1" as="geometry" />
        </mxCell>
        <mxCell id="npDnuudYXLRrLSvOA6rn-33" style="edgeStyle=orthogonalEdgeStyle;rounded=0;orthogonalLoop=1;jettySize=auto;html=1;exitX=0.5;exitY=1;exitDx=0;exitDy=0;" edge="1" parent="npDnuudYXLRrLSvOA6rn-43" source="npDnuudYXLRrLSvOA6rn-31" target="npDnuudYXLRrLSvOA6rn-24">
          <mxGeometry relative="1" as="geometry" />
        </mxCell>
        <mxCell id="npDnuudYXLRrLSvOA6rn-34" style="edgeStyle=orthogonalEdgeStyle;rounded=0;orthogonalLoop=1;jettySize=auto;html=1;exitX=1;exitY=0.5;exitDx=0;exitDy=0;entryX=1;entryY=0.5;entryDx=0;entryDy=0;" edge="1" parent="npDnuudYXLRrLSvOA6rn-43" source="npDnuudYXLRrLSvOA6rn-31" target="npDnuudYXLRrLSvOA6rn-8">
          <mxGeometry relative="1" as="geometry" />
        </mxCell>
        <mxCell id="npDnuudYXLRrLSvOA6rn-31" value="new PIN is number ?&lt;br&gt;not more and less than 6 char ?" style="rhombus;whiteSpace=wrap;html=1;" vertex="1" parent="npDnuudYXLRrLSvOA6rn-43">
          <mxGeometry x="505.5" y="690" width="191" height="173" as="geometry" />
        </mxCell>
        <mxCell id="npDnuudYXLRrLSvOA6rn-32" style="edgeStyle=orthogonalEdgeStyle;rounded=0;orthogonalLoop=1;jettySize=auto;html=1;exitX=0.5;exitY=1;exitDx=0;exitDy=0;entryX=0.5;entryY=0;entryDx=0;entryDy=0;" edge="1" parent="npDnuudYXLRrLSvOA6rn-43" source="npDnuudYXLRrLSvOA6rn-25" target="npDnuudYXLRrLSvOA6rn-31">
          <mxGeometry relative="1" as="geometry" />
        </mxCell>
        <mxCell id="npDnuudYXLRrLSvOA6rn-35" value="yes" style="text;html=1;strokeColor=none;fillColor=none;align=center;verticalAlign=middle;whiteSpace=wrap;rounded=0;" vertex="1" parent="npDnuudYXLRrLSvOA6rn-43">
          <mxGeometry x="349" y="861" width="40" height="20" as="geometry" />
        </mxCell>
        <mxCell id="npDnuudYXLRrLSvOA6rn-36" value="no" style="text;html=1;strokeColor=none;fillColor=none;align=center;verticalAlign=middle;whiteSpace=wrap;rounded=0;" vertex="1" parent="npDnuudYXLRrLSvOA6rn-43">
          <mxGeometry x="428" y="781" width="40" height="20" as="geometry" />
        </mxCell>
        <mxCell id="npDnuudYXLRrLSvOA6rn-38" value="no" style="text;html=1;strokeColor=none;fillColor=none;align=center;verticalAlign=middle;whiteSpace=wrap;rounded=0;" vertex="1" parent="npDnuudYXLRrLSvOA6rn-43">
          <mxGeometry x="690" y="781" width="40" height="20" as="geometry" />
        </mxCell>
        <mxCell id="npDnuudYXLRrLSvOA6rn-39" value="yes" style="text;html=1;strokeColor=none;fillColor=none;align=center;verticalAlign=middle;whiteSpace=wrap;rounded=0;" vertex="1" parent="npDnuudYXLRrLSvOA6rn-43">
          <mxGeometry x="607" y="861" width="40" height="20" as="geometry" />
        </mxCell>
      </root>
    </mxGraphModel>
  </diagram>
</mxfile>
